<?xml version="1.0" encoding="UTF-8" standalone="no"?>
<!DOCTYPE svg PUBLIC "-//W3C//DTD SVG 20010904//EN"
              "http://www.w3.org/TR/2001/REC-SVG-20010904/DTD/svg10.dtd">

<svg xmlns="http://www.w3.org/2000/svg"
     width="3.95333in" height="2.03667in"
     viewBox="0 0 1186 611">
  <path id="Selection"
        fill="none" stroke="black" stroke-width="1"
        d="M 579.48,99.82
           C 574.02,103.73 574.01,106.76 574.00,113.00
             573.98,125.36 570.66,151.32 589.00,151.98
             599.66,152.37 601.98,147.95 602.00,138.00
             602.00,138.00 602.00,123.00 602.00,123.00
             601.91,117.19 601.49,118.70 599.84,113.92
             599.84,113.92 598.19,108.46 598.19,108.46
             594.57,101.35 587.09,97.43 579.48,99.82 Z
           M 546.00,152.00
           C 546.00,152.00 544.57,116.28 544.57,116.28
             544.57,116.28 539.00,103.00 539.00,103.00
             535.88,103.00 530.89,102.62 528.25,104.31
             525.71,105.95 525.23,109.07 524.43,111.72
             521.56,119.63 522.81,129.03 524.43,137.00
             525.35,140.66 524.78,145.58 527.56,148.45
             531.68,152.73 540.54,152.00 546.00,152.00 Z
           M 565.04,199.76
           C 560.55,201.72 555.57,205.72 553.73,210.44
             551.34,216.53 554.25,230.61 558.75,235.27
             562.10,238.74 566.35,239.87 571.00,239.99
             577.71,240.15 586.37,238.36 589.76,231.71
             590.97,229.33 590.96,226.60 591.00,224.00
             591.11,214.26 591.04,199.21 578.00,199.00
             573.65,198.93 569.28,198.74 565.04,199.76 Z
           M 579.48,99.82
           C 574.02,103.73 574.01,106.76 574.00,113.00
             573.98,125.36 570.66,151.32 589.00,151.98
             599.66,152.37 601.98,147.95 602.00,138.00
             602.00,138.00 602.00,123.00 602.00,123.00
             601.91,117.19 601.49,118.70 599.84,113.92
             599.84,113.92 598.19,108.46 598.19,108.46
             594.57,101.35 587.09,97.43 579.48,99.82 Z
           M 546.00,152.00
           C 546.00,152.00 544.57,116.28 544.57,116.28
             544.57,116.28 539.00,103.00 539.00,103.00
             535.88,103.00 530.89,102.62 528.25,104.31
             525.71,105.95 525.23,109.07 524.43,111.72
             521.56,119.63 522.81,129.03 524.43,137.00
             525.35,140.66 524.78,145.58 527.56,148.45
             531.68,152.73 540.54,152.00 546.00,152.00 Z
           M 565.04,199.76
           C 560.55,201.72 555.57,205.72 553.73,210.44
             551.34,216.53 554.25,230.61 558.75,235.27
             562.10,238.74 566.35,239.87 571.00,239.99
             577.71,240.15 586.37,238.36 589.76,231.71
             590.97,229.33 590.96,226.60 591.00,224.00
             591.11,214.26 591.04,199.21 578.00,199.00
             573.65,198.93 569.28,198.74 565.04,199.76 Z
           M 492.00,79.00
           C 492.00,79.00 498.00,117.00 498.00,117.00
             498.00,117.00 498.00,152.00 498.00,152.00
             498.00,152.00 497.00,169.00 497.00,169.00
             497.00,169.00 497.00,197.00 497.00,197.00
             497.00,197.00 498.01,207.00 498.01,207.00
             498.01,207.00 498.01,215.91 498.01,215.91
             498.01,215.91 499.74,222.09 499.74,222.09
             500.36,225.55 499.49,227.74 500.97,233.00
             502.75,239.29 505.96,247.72 506.00,254.00
             506.00,254.00 506.00,266.00 506.00,266.00
             505.99,273.68 505.74,270.82 504.15,277.17
             500.62,291.20 500.83,290.84 495.15,304.28
             495.15,304.28 490.29,316.72 490.29,316.72
             485.75,326.10 469.62,352.48 463.38,360.70
             463.38,360.70 450.48,376.26 450.48,376.26
             450.48,376.26 441.69,388.55 441.69,388.55
             441.69,388.55 432.72,400.54 432.72,400.54
             423.34,412.10 416.82,416.62 412.83,431.91
             411.59,436.65 411.09,435.32 411.00,441.00
             411.00,441.00 411.00,446.00 411.00,446.00
             411.01,449.46 410.85,451.67 412.11,455.00
             414.80,462.15 420.69,464.88 428.00,465.00
             443.38,465.25 451.86,455.34 464.08,447.94
             469.30,444.79 470.83,444.08 477.00,444.00
             485.16,443.90 501.81,443.26 509.00,445.37
             509.00,445.37 543.00,458.27 543.00,458.27
             543.00,458.27 552.00,460.37 552.00,460.37
             556.12,461.55 558.50,462.64 563.00,462.91
             571.73,463.42 578.27,460.14 586.17,457.30
             597.36,453.26 602.39,452.66 613.57,446.45
             626.14,439.46 624.52,435.03 641.00,435.00
             647.00,434.99 662.07,434.40 667.00,436.01
             679.83,440.21 687.79,449.97 703.00,450.00
             703.00,450.00 726.00,450.00 726.00,450.00
             726.00,450.00 740.60,419.00 740.60,419.00
             742.39,413.53 742.06,406.76 742.00,401.00
             741.82,385.98 733.87,363.44 727.60,349.72
             725.50,345.11 726.03,341.92 722.41,336.44
             722.41,336.44 709.13,322.87 709.13,322.87
             709.13,322.87 700.96,313.46 700.96,313.46
             700.96,313.46 691.78,306.63 691.78,306.63
             691.78,306.63 677.15,286.56 677.15,286.56
             677.15,286.56 674.31,279.44 674.31,279.44
             674.31,279.44 667.36,268.73 667.36,268.73
             667.36,268.73 658.75,250.72 658.75,250.72
             658.75,250.72 654.05,228.09 654.05,228.09
             654.05,228.09 652.26,221.91 652.26,221.91
             652.26,221.91 650.76,208.17 650.76,208.17
             650.76,208.17 649.06,201.96 649.06,201.96
             649.06,201.96 649.06,197.00 649.06,197.00
             648.96,174.27 650.35,140.55 647.89,119.09
             647.89,119.09 646.26,112.91 646.26,112.91
             646.26,112.91 644.78,101.17 644.78,101.17
             644.78,101.17 640.18,85.91 640.18,85.91
             640.18,85.91 635.31,66.42 635.31,66.42
             629.98,51.93 619.25,38.26 607.29,28.72
             607.29,28.72 602.54,24.84 602.54,24.84
             598.55,22.51 591.48,20.91 587.28,19.27
             578.27,15.75 568.71,14.02 559.00,14.00
             559.00,14.00 541.00,14.00 541.00,14.00
             532.61,14.04 532.28,14.95 524.91,16.82
             520.10,18.05 515.98,18.33 511.16,20.51
             508.43,21.74 507.74,23.04 505.54,24.67
             505.54,24.67 499.66,28.18 499.66,28.18
             495.08,31.54 490.33,37.76 487.86,42.87
             484.48,49.86 484.99,56.47 485.00,64.00
             485.01,67.58 484.87,72.78 486.93,75.85
             488.44,78.10 489.63,78.28 492.00,79.00 Z
           M 590.00,75.00
           C 590.00,75.00 588.71,78.17 588.71,78.17
             588.71,78.17 569.51,91.17 569.51,91.17
             569.51,91.17 561.00,99.00 561.00,99.00
             561.12,94.94 561.50,92.66 564.16,89.37
             565.91,87.21 581.48,76.74 584.17,75.82
             586.19,75.12 587.91,75.10 590.00,75.00 Z
           M 543.00,99.00
           C 537.98,98.75 531.00,97.15 529.00,92.00
             529.00,92.00 516.00,89.00 516.00,89.00
             516.00,89.00 516.00,85.00 516.00,85.00
             524.54,85.03 528.31,87.12 535.58,91.42
             537.39,92.50 540.70,93.87 541.83,95.48
             542.68,96.69 542.70,97.66 543.00,99.00 Z
           M 580.30,99.48
           C 587.20,98.16 589.51,98.98 594.37,103.87
             595.68,105.19 597.35,106.81 598.19,108.46
             598.19,108.46 599.84,113.92 599.84,113.92
             601.74,119.43 601.96,117.47 602.00,124.00
             602.00,124.00 602.00,139.00 602.00,139.00
             601.95,148.63 598.77,152.34 589.00,151.98
             570.38,151.31 573.82,123.59 574.00,111.00
             574.08,105.52 575.23,102.16 580.30,99.48 Z
           M 539.00,103.00
           C 539.00,103.00 544.57,116.28 544.57,116.28
             544.57,116.28 546.00,152.00 546.00,152.00
             540.54,152.00 531.68,152.73 527.56,148.45
             524.78,145.58 525.35,140.66 524.43,137.00
             522.81,129.03 521.56,119.63 524.43,111.72
             525.23,109.07 525.71,105.95 528.25,104.31
             530.89,102.62 535.88,103.00 539.00,103.00 Z
           M 566.01,199.47
           C 569.88,198.84 581.90,197.79 585.00,200.00
             590.98,204.27 590.99,214.39 591.00,221.00
             591.00,225.16 591.45,229.86 588.71,233.33
             584.39,238.79 577.52,240.15 571.00,239.99
             566.35,239.87 562.10,238.74 558.75,235.27
             554.25,230.61 551.34,216.53 553.73,210.44
             555.70,205.40 561.08,201.20 566.01,199.47 Z
           M 548.00,273.00
           C 536.24,272.09 533.01,259.86 522.04,258.60
             515.44,257.84 513.06,269.16 518.04,275.02
             528.39,287.17 533.33,278.70 534.00,290.00
             531.95,289.47 522.62,285.98 521.00,284.92
             512.16,279.10 508.83,273.80 511.88,263.00
             512.49,260.83 513.49,257.33 515.43,256.02
             516.94,255.00 519.23,255.02 521.00,255.01
             531.03,254.94 533.89,258.68 540.96,264.74
             544.68,267.92 546.52,268.02 548.00,273.00 Z
           M 643.94,297.00
           C 643.94,297.00 643.94,320.91 643.94,320.91
             643.94,320.91 641.00,332.00 641.00,332.00
             628.64,332.00 621.07,330.24 621.00,316.00
             620.97,310.05 619.07,301.35 625.00,298.00
             626.30,303.57 622.37,309.23 624.48,316.83
             625.91,322.00 634.80,331.54 638.49,323.94
             640.71,319.36 640.00,302.88 640.00,297.00
             640.00,297.00 643.94,297.00 643.94,297.00 Z" />
</svg>
