<svg xmlns="http://www.w3.org/2000/svg" viewBox="0.0190826 0.0318841 0.5461 0.7926">
  <path d="M.26.036C.396.036.436.164.396.288.432.352.72.216.44.416.592.676.548.772.536.804.46.868.396.72.26.792.184.856.148.728.024.796.02.812.024.608.144.392.168.376-.1.028.204.268.128.132.192.032.26.036M.2114.1258C.1834.149.2172.1904.2452.1706.2766.148.2398.1032.2114.1258M.3068.1194C.2748.1444.3168.1916.344.1682.3708.1432.3376.0978.3068.1194M.2818.1932C.2416.1974.2474.2718.2852.2706.3284.2712.3272.1892.2818.1932" stroke="#000000" stroke-width="0.004" fill="#FFF"/>
</svg>